<?xml version="1.0" standalone="no"?><!DOCTYPE svg PUBLIC "-//W3C//DTD SVG 1.1//EN" "http://www.w3.org/Graphics/SVG/1.1/DTD/svg11.dtd"><svg t="1508770544619" class="icon" style="" viewBox="0 0 1120 1024" version="1.1" xmlns="http://www.w3.org/2000/svg" p-id="4969" xmlns:xlink="http://www.w3.org/1999/xlink" width="87.5" height="80"><defs><style type="text/css"></style></defs><path d="M716.893091 443.973818c0 0-91.717818 66.257455-258.234182 65.489455C248.832 508.532364 141.568 433.338182 141.568 433.338182l-37.026909 39.121455c0 0 29.765818 111.685818 109.172364 153.786182 41.821091 22.178909 174.685091 8.541091 174.685091 8.541091s73.122909-5.794909 112.965818-20.875636C541.230545 598.830545 656.128 558.871273 716.893091 443.973818z" p-id="4970" fill="#d81e06"></path><path d="M783.313455 220.858182c0 0-9.472-47.476364 23.761455-52.224s37.957818 34.187636 38.912 38.935273c0.977455 4.747636 0 149.038545 0 149.038545s31.348364 21.829818 49.384727 86.388364c18.013091 64.558545-1.885091 178.478545-133.864727 283.880727s-260.142545 133.864727-430.056727 93.044364c-169.937455-40.820364-192.721455-120.576-192.721455-120.576s-6.656-31.348364 20.875636-45.568c27.531636-14.242909 87.226182 30.72 277.224727 1.885091 203.170909-30.836364 300.939636-155.694545 332.288-264.866909C800.418909 281.623273 783.313455 220.858182 783.313455 220.858182z" p-id="4971" fill="#d81e06"></path></svg>