<?xml version="1.0" standalone="no"?><!DOCTYPE svg PUBLIC "-//W3C//DTD SVG 1.1//EN" "http://www.w3.org/Graphics/SVG/1.1/DTD/svg11.dtd"><svg t="1508769631392" class="icon" style="" viewBox="0 0 1024 1024" version="1.1" xmlns="http://www.w3.org/2000/svg" p-id="3712" xmlns:xlink="http://www.w3.org/1999/xlink" width="80" height="80"><defs><style type="text/css"></style></defs><path d="M838.7 674.7h-62.3v-61.3h31.1V552H216v61.4h31.2v61.3h-62.3c-17.2 0-31.2-13.7-31.2-30.7V337.4c0-29.6 124.5-61.3 342.5-61.3h31.1c216 0 342.5 31 342.5 61.3V644c0 17-13.9 30.7-31.1 30.7z m-77.8-306.6c-25.8 0-46.7 20.6-46.7 46s20.9 46 46.7 46 46.7-20.6 46.7-46c0-25.5-20.9-46-46.7-46zM309.4 153.4h404.7c17.2 0 31.1 13.7 31.1 30.7v61.3h-467v-61.3c0.1-17 14-30.7 31.2-30.7z m435.9 705.3c0 16.9-13.9 30.6-31.1 30.6H309.4c-17.2 0-31.2-13.7-31.2-30.6v-276h467v276h0.1zM377.5 668.1v44.8H646v-44.8H377.5z m0 89.5v44.8H646v-44.8H377.5z" fill="#1296db" p-id="3713"></path></svg>